<svg xmlns="http://www.w3.org/2000/svg" width="352" height="94" viewBox="0 0 352 94" role="img" aria-label="Реверси"><title>Реверси</title><defs><linearGradient id="ink" x1="0" y1="0" x2="0" y2="1"><stop stop-color="#ffffff"/><stop offset=".58" stop-color="#eef6ff"/><stop offset="1" stop-color="#ffd39a"/></linearGradient></defs><path d="M22 35.0 L25 44.0 L34 47.0 L25 50.0 L22 59.0 L19 50.0 L10 47.0 L19 44.0 Z" fill="#ffd39a"/><g fill="#283e6f" opacity=".7" transform="translate(0 2)"><path transform="translate(42.000 74) scale(.055 -.055)" d="M491 750Q585 750 653.5 718.0Q722 686 758.0 627.5Q794 569 794 491Q794 414 758.0 355.5Q722 297 653.5 265.0Q585 233 491 233H166V399H478Q528 399 556.0 423.5Q584 448 584 491Q584 535 556.0 559.5Q528 584 478 584H184L277 680V0H70V750Z"/><path transform="translate(86.000 74) scale(.055 -.055)" d="M391 -16Q287 -16 205.5 22.0Q124 60 77.0 128.5Q30 197 30 288Q30 377 75.0 444.5Q120 512 198.5 550.0Q277 588 376 588Q479 588 551.5 543.5Q624 499 663.5 418.0Q703 337 703 227H195V350H588L521 307Q517 351 499.0 381.5Q481 412 451.5 428.0Q422 444 381 444Q336 444 304.0 426.0Q272 408 254.0 376.5Q236 345 236 303Q236 249 260.5 211.5Q285 174 332.5 154.0Q380 134 449 134Q512 134 574.5 150.5Q637 167 688 197V67Q629 27 553.5 5.5Q478 -16 391 -16Z"/><path transform="translate(125.600 74) scale(.055 -.055)" d="M42 0 78 286 42 571H507Q590 571 639.0 532.5Q688 494 688 428Q688 366 638.5 327.5Q589 289 502 280L515 313Q616 309 669.5 270.0Q723 231 723 162Q723 88 668.0 44.0Q613 0 520 0ZM239 43 160 127H452Q485 127 501.5 141.5Q518 156 518 182Q518 206 500.5 221.5Q483 237 445 237H200V343H421Q452 343 468.0 357.0Q484 371 484 394Q484 417 469.5 431.0Q455 445 425 445H161L239 528L272 286Z"/><path transform="translate(166.190 74) scale(.055 -.055)" d="M391 -16Q287 -16 205.5 22.0Q124 60 77.0 128.5Q30 197 30 288Q30 377 75.0 444.5Q120 512 198.5 550.0Q277 588 376 588Q479 588 551.5 543.5Q624 499 663.5 418.0Q703 337 703 227H195V350H588L521 307Q517 351 499.0 381.5Q481 412 451.5 428.0Q422 444 381 444Q336 444 304.0 426.0Q272 408 254.0 376.5Q236 345 236 303Q236 249 260.5 211.5Q285 174 332.5 154.0Q380 134 449 134Q512 134 574.5 150.5Q637 167 688 197V67Q629 27 553.5 5.5Q478 -16 391 -16Z"/><path transform="translate(205.790 74) scale(.055 -.055)" d="M56 571H261V407L252 383V223L261 176V-165H56ZM196 285Q209 378 250.5 445.5Q292 513 356.0 550.5Q420 588 501 588Q585 588 648.5 550.0Q712 512 747.5 444.0Q783 376 783 285Q783 196 747.5 127.5Q712 59 648.5 21.5Q585 -16 501 -16Q420 -16 356.0 21.5Q292 59 251.0 127.0Q210 195 196 285ZM577 285Q577 328 559.5 361.0Q542 394 510.5 413.0Q479 432 439 432Q398 432 361.0 413.0Q324 394 296.0 361.0Q268 328 253 285Q268 243 296.0 210.0Q324 177 361.0 158.5Q398 140 439 140Q479 140 510.5 158.5Q542 177 559.5 210.0Q577 243 577 285Z"/><path transform="translate(249.845 74) scale(.055 -.055)" d="M737 241Q729 164 681.0 106.0Q633 48 556.5 16.0Q480 -16 385 -16Q280 -16 200.0 22.0Q120 60 75.0 128.0Q30 196 30 285Q30 375 75.0 443.0Q120 511 200.0 549.5Q280 588 385 588Q480 588 556.5 555.5Q633 523 681.0 465.5Q729 408 737 330H534Q523 381 483.0 408.5Q443 436 385 436Q340 436 306.5 418.5Q273 401 254.5 367.5Q236 334 236 285Q236 237 254.5 203.5Q273 170 306.5 152.5Q340 135 385 135Q443 135 483.5 164.0Q524 193 534 241Z"/><path transform="translate(290.985 74) scale(.055 -.055)" d="M56 0V571H258V111L214 125L513 571H775V0H574V473L618 458L311 0Z"/></g><g fill="url(#ink)" stroke="#edfaff" stroke-width="2" stroke-linejoin="round"><path transform="translate(42.000 74) scale(.055 -.055)" d="M491 750Q585 750 653.5 718.0Q722 686 758.0 627.5Q794 569 794 491Q794 414 758.0 355.5Q722 297 653.5 265.0Q585 233 491 233H166V399H478Q528 399 556.0 423.5Q584 448 584 491Q584 535 556.0 559.5Q528 584 478 584H184L277 680V0H70V750Z"/><path transform="translate(86.000 74) scale(.055 -.055)" d="M391 -16Q287 -16 205.5 22.0Q124 60 77.0 128.5Q30 197 30 288Q30 377 75.0 444.5Q120 512 198.5 550.0Q277 588 376 588Q479 588 551.5 543.5Q624 499 663.5 418.0Q703 337 703 227H195V350H588L521 307Q517 351 499.0 381.5Q481 412 451.5 428.0Q422 444 381 444Q336 444 304.0 426.0Q272 408 254.0 376.5Q236 345 236 303Q236 249 260.5 211.5Q285 174 332.5 154.0Q380 134 449 134Q512 134 574.5 150.5Q637 167 688 197V67Q629 27 553.5 5.5Q478 -16 391 -16Z"/><path transform="translate(125.600 74) scale(.055 -.055)" d="M42 0 78 286 42 571H507Q590 571 639.0 532.5Q688 494 688 428Q688 366 638.5 327.5Q589 289 502 280L515 313Q616 309 669.5 270.0Q723 231 723 162Q723 88 668.0 44.0Q613 0 520 0ZM239 43 160 127H452Q485 127 501.5 141.5Q518 156 518 182Q518 206 500.5 221.5Q483 237 445 237H200V343H421Q452 343 468.0 357.0Q484 371 484 394Q484 417 469.5 431.0Q455 445 425 445H161L239 528L272 286Z"/><path transform="translate(166.190 74) scale(.055 -.055)" d="M391 -16Q287 -16 205.5 22.0Q124 60 77.0 128.5Q30 197 30 288Q30 377 75.0 444.5Q120 512 198.5 550.0Q277 588 376 588Q479 588 551.5 543.5Q624 499 663.5 418.0Q703 337 703 227H195V350H588L521 307Q517 351 499.0 381.5Q481 412 451.5 428.0Q422 444 381 444Q336 444 304.0 426.0Q272 408 254.0 376.5Q236 345 236 303Q236 249 260.5 211.5Q285 174 332.5 154.0Q380 134 449 134Q512 134 574.5 150.5Q637 167 688 197V67Q629 27 553.5 5.5Q478 -16 391 -16Z"/><path transform="translate(205.790 74) scale(.055 -.055)" d="M56 571H261V407L252 383V223L261 176V-165H56ZM196 285Q209 378 250.5 445.5Q292 513 356.0 550.5Q420 588 501 588Q585 588 648.5 550.0Q712 512 747.5 444.0Q783 376 783 285Q783 196 747.5 127.5Q712 59 648.5 21.5Q585 -16 501 -16Q420 -16 356.0 21.5Q292 59 251.0 127.0Q210 195 196 285ZM577 285Q577 328 559.5 361.0Q542 394 510.5 413.0Q479 432 439 432Q398 432 361.0 413.0Q324 394 296.0 361.0Q268 328 253 285Q268 243 296.0 210.0Q324 177 361.0 158.5Q398 140 439 140Q479 140 510.5 158.5Q542 177 559.5 210.0Q577 243 577 285Z"/><path transform="translate(249.845 74) scale(.055 -.055)" d="M737 241Q729 164 681.0 106.0Q633 48 556.5 16.0Q480 -16 385 -16Q280 -16 200.0 22.0Q120 60 75.0 128.0Q30 196 30 285Q30 375 75.0 443.0Q120 511 200.0 549.5Q280 588 385 588Q480 588 556.5 555.5Q633 523 681.0 465.5Q729 408 737 330H534Q523 381 483.0 408.5Q443 436 385 436Q340 436 306.5 418.5Q273 401 254.5 367.5Q236 334 236 285Q236 237 254.5 203.5Q273 170 306.5 152.5Q340 135 385 135Q443 135 483.5 164.0Q524 193 534 241Z"/><path transform="translate(290.985 74) scale(.055 -.055)" d="M56 0V571H258V111L214 125L513 571H775V0H574V473L618 458L311 0Z"/></g></svg>